<?xml version="1.0" encoding="utf-8"?>
<!-- Generator: Adobe Illustrator 16.0.0, SVG Export Plug-In . SVG Version: 6.00 Build 0)  -->
<!DOCTYPE svg PUBLIC "-//W3C//DTD SVG 1.1//EN" "http://www.w3.org/Graphics/SVG/1.1/DTD/svg11.dtd">
<svg version="1.1" id="Layer_1" xmlns="http://www.w3.org/2000/svg" xmlns:xlink="http://www.w3.org/1999/xlink" x="0px" y="0px"
	 width="500px" height="500px" viewBox="0 0 500 500" enable-background="new 0 0 500 500" xml:space="preserve">
<g>
	<g>
		<g>
			<path fill="none" stroke="#D6B82A" stroke-width="15.3534" stroke-linecap="round" stroke-miterlimit="10" d="M325.971,244.288
				c-6.223,13.692-20.022,23.214-36.048,23.214c-21.856,0-39.573-17.712-39.573-39.572c0-21.856,17.717-39.572,39.573-39.572
				c16.681,0,30.95,10.32,36.771,24.925"/>
			
				<line fill="none" stroke="#D6B82A" stroke-width="15.3534" stroke-linecap="round" stroke-miterlimit="10" x1="302.289" y1="238.52" x2="333.316" y2="238.52"/>
			
				<line fill="none" stroke="#D6B82A" stroke-width="15.3534" stroke-linecap="round" stroke-miterlimit="10" x1="333.316" y1="269.546" x2="333.316" y2="238.52"/>
		</g>
		<circle fill="none" stroke="#6EC7B4" stroke-width="15.3534" stroke-miterlimit="10" cx="392.516" cy="231.902" r="36.76"/>
		
			<polyline fill="none" stroke="#28245F" stroke-width="15.3534" stroke-linecap="round" stroke-linejoin="round" stroke-miterlimit="10" points="
			70.725,170.32 112.667,266.864 155.993,170.32 		"/>
		<g>
			<path fill="#057C71" d="M196.136,274.145c-23.675,0-41.932-17.177-41.932-42.4v-0.311c0-23.365,16.555-42.547,39.922-42.547
				c25.992,0,38.835,21.351,38.835,40.229c0,5.262-4.023,8.971-8.82,8.971h-51.216c2.012,13.314,11.453,20.734,23.52,20.734
				c7.892,0,14.081-2.781,19.342-7.115c1.395-1.079,2.628-1.704,4.798-1.704c4.175,0,7.426,3.254,7.426,7.587
				c0,2.319-1.084,4.329-2.476,5.723C218.108,269.965,208.825,274.145,196.136,274.145z M214.706,225.71
				c-1.24-12.069-8.357-21.51-20.737-21.51c-11.45,0-19.493,8.821-21.195,21.51H214.706z"/>
		</g>
	</g>
	<rect x="84.973" y="294.951" fill="none" width="330.054" height="34.729"/>
	<g enable-background="new    ">
		<path fill="#A6A8AC" d="M139.037,320.515h-3.839l-7.179-25.568h4.3l4.952,19.887l4.876-19.887h4.185L139.037,320.515z"/>
		<path fill="#A6A8AC" d="M153.161,320.821c-4.069,0-6.488-2.495-6.488-6.603v-5.375c0-4.069,2.418-6.642,6.488-6.642
			c4.07,0,6.181,2.572,6.181,6.642v2.765h-9.137v3.225c0,1.843,1.037,3.071,2.956,3.071c1.92,0,2.957-1.229,2.957-3.071v-0.729
			h3.225v0.23C159.342,318.403,157.231,320.821,153.161,320.821z M156.118,308.191c0-1.805-1.037-3.071-2.957-3.071
			c-1.919,0-2.956,1.267-2.956,3.071v1.535h5.913V308.191z"/>
		<path fill="#A6A8AC" d="M175.118,304.467c-0.46,0-0.998,0.039-1.535-0.307c1.267,1.036,1.881,2.38,1.881,3.763v0.345
			c0,3.302-2.495,5.605-6.334,5.605c-0.384,0-1.574-0.153-1.881-0.23c-1.036,0-1.766,0.883-1.766,1.497
			c0,0.922,0.959,1.574,4.684,1.574c4.53,0,6.488,1.728,6.488,4.223v0.385c0,2.956-2.765,5.604-7.256,5.604
			c-4.069,0-7.409-1.804-7.409-4.491v-0.23c0-1.612,1.037-2.765,3.455-3.302c-2.035-0.461-2.995-1.651-2.995-2.88
			c0-1.344,1.382-2.764,3.071-3.032c-1.728-0.922-2.688-2.688-2.688-4.838v-0.115c0-3.263,2.803-5.835,6.296-5.835
			c1.728,0,2.611,0.499,2.995,0.499c1.843,0,2.342-0.998,2.342-2.265h2.495c0.154,0.883,0.154,1.267,0.154,1.65
			C177.114,303.814,176.04,304.467,175.118,304.467z M173.313,321.397c0-1.189-0.768-1.958-3.954-1.958
			c-2.879,0-4.146,0.883-4.146,2.073v0.23c0,1.19,1.267,2.304,4.146,2.304s3.954-1.229,3.954-2.419V321.397z M172.162,307.999
			c0-1.689-1.151-3.148-3.033-3.148s-3.033,1.459-3.033,3.148v0.153c0,1.689,1.151,3.148,3.033,3.148s3.033-1.459,3.033-3.148
			V307.999z"/>
		<path fill="#A6A8AC" d="M191.239,320.821c-1.459,0-2.688-0.613-2.649-2.495c-1.229,1.574-3.148,2.495-5.26,2.495
			c-3.071,0-5.145-1.842-5.145-4.837v-0.23c0-4.606,4.761-5.566,9.483-5.874v-2.265c0-1.536-0.845-2.419-2.611-2.419
			c-2.073,0-2.572,0.807-2.572,2.611v0.537h-3.532v-0.652c0-2.995,1.881-5.49,6.065-5.49c4.646,0,6.104,2.726,6.104,6.258v8.6
			c0,0.691,0.384,1.036,1.267,1.036v2.726H191.239z M187.668,312.107c-4.108,0.307-6.027,1.267-6.027,3.531v0.115
			c0,1.19,0.806,2.227,2.342,2.227c1.804,0,3.686-1.151,3.686-2.917V312.107z"/>
		<path fill="#A6A8AC" d="M205.21,320.515v-12.631c0-1.805-0.998-2.879-2.534-2.879c-2.265,0-3.456,3.34-3.456,4.684v10.826h-3.686
			v-17.967h2.995l0.269,4.146c1.19-3.148,2.803-4.454,4.991-4.454c3.378,0,5.106,2.266,5.106,5.605v12.669H205.21z"/>
		<path fill="#A6A8AC" d="M224.592,298.555v7.41h7.41v3.531h-7.41v11.019h-4.069v-25.606h13.744v3.646H224.592z"/>
		<path fill="#A6A8AC" d="M242.018,320.821c-4.069,0-6.526-2.495-6.526-6.603v-5.375c0-4.069,2.457-6.642,6.526-6.642
			c4.031,0,6.488,2.572,6.488,6.642v5.375C248.506,318.326,246.049,320.821,242.018,320.821z M244.935,308.191
			c0-1.805-1.036-3.071-2.917-3.071c-1.919,0-2.956,1.267-2.956,3.071v6.642c0,1.843,1.037,3.071,2.956,3.071
			c1.881,0,2.917-1.229,2.917-3.071V308.191z"/>
		<path fill="#A6A8AC" d="M258.6,320.821c-4.07,0-6.527-2.495-6.527-6.603v-5.375c0-4.069,2.457-6.642,6.527-6.642
			c4.031,0,6.488,2.572,6.488,6.642v5.375C265.088,318.326,262.631,320.821,258.6,320.821z M261.518,308.191
			c0-1.805-1.037-3.071-2.918-3.071c-1.92,0-2.957,1.267-2.957,3.071v6.642c0,1.843,1.037,3.071,2.957,3.071
			c1.881,0,2.918-1.229,2.918-3.071V308.191z"/>
		<path fill="#A6A8AC" d="M279.289,320.515l-0.23-2.764c-0.922,2.303-3.033,3.07-4.914,3.07c-3.264,0-5.49-2.303-5.49-5.988v-6.335
			c0-3.839,2.188-6.296,5.105-6.296c2.227,0,3.34,0.729,4.492,2.188v-9.444h3.646v25.568H279.289z M278.252,308.575
			c0-2.188-1.189-3.494-3.071-3.494s-2.956,1.113-2.956,3.725v5.566c0,2.61,1.074,3.724,2.956,3.724
			c1.574,0,3.071-1.151,3.071-3.493V308.575z"/>
		<path fill="#A6A8AC" d="M302.011,298.632v21.883h-4.069v-21.883h-6.22v-3.686h16.509v3.686H302.011z"/>
		<path fill="#A6A8AC" d="M313.947,320.821c-4.068,0-6.525-2.495-6.525-6.603v-5.375c0-4.069,2.457-6.642,6.525-6.642
			c4.031,0,6.488,2.572,6.488,6.642v5.375C320.436,318.326,317.979,320.821,313.947,320.821z M316.865,308.191
			c0-1.805-1.036-3.071-2.918-3.071c-1.919,0-2.955,1.267-2.955,3.071v6.642c0,1.843,1.036,3.071,2.955,3.071
			c1.882,0,2.918-1.229,2.918-3.071V308.191z"/>
		<path fill="#A6A8AC" d="M345.615,320.515l-0.652-2.15c-1.037,1.844-3.11,2.803-5.798,2.803c-5.452,0-7.716-3.724-7.716-7.87
			v-11.133c0-4.146,2.533-7.832,8.254-7.832c5.758,0,7.908,3.225,7.908,7.832v0.537h-3.916v-0.921c0-2.035-1.113-3.916-3.992-3.916
			c-2.88,0-4.186,1.996-4.186,4.03v11.71c0,1.996,1.306,3.992,4.186,3.992c2.879,0,4.184-1.996,4.184-3.992v-3.033h-4.068v-3.417
			h7.908v13.36H345.615z"/>
		<path fill="#A6A8AC" d="M357.818,320.821c-4.068,0-6.525-2.495-6.525-6.603v-5.375c0-4.069,2.457-6.642,6.525-6.642
			c4.031,0,6.488,2.572,6.488,6.642v5.375C364.307,318.326,361.85,320.821,357.818,320.821z M360.736,308.191
			c0-1.805-1.036-3.071-2.918-3.071c-1.919,0-2.955,1.267-2.955,3.071v6.642c0,1.843,1.036,3.071,2.955,3.071
			c1.882,0,2.918-1.229,2.918-3.071V308.191z"/>
	</g>
</g>
</svg>
